<svg xmlns="http://www.w3.org/2000/svg" xmlns:xlink="http://www.w3.org/1999/xlink" width="745.233" height="523.992" viewBox="0 0 745.233 523.992"><defs><clipPath id="a"><path d="M653.2,308.232a197.792,197.792,0,0,0,3.241-35.735c0-108.354-88.143-196.5-196.5-196.5a197.363,197.363,0,0,0-168.5,95.391c-47.546-15.414-96.33-8.8-136.52,18.891a151.627,151.627,0,0,0-66.118,119.4C35.975,334.776,0,388.208,0,447.161c0,10.234,2.479,20.213,4.375,29.892l.022.022c14.116,71.234,77.162,122.917,149.889,122.917h436.66c84.262,0,154.287-68.569,154.287-152.831C745.233,387.569,708.768,333.923,653.2,308.232Z" transform="translate(0 -76)"/></clipPath><pattern id="b" width="1" height="1" patternTransform="matrix(-1, 0, 0, 1, 1906.925, 0)" viewBox="0 0 953.463 635.582"><image preserveAspectRatio="none" width="953.463" height="635.582" xlink:href="../../../../../../../Downloads/waitress-using-app.jpg"/></pattern></defs><g clip-path="url(#a)"><rect width="953.463" height="635.582" transform="translate(-190.236)" fill="url(#b)"/></g></svg>